<svg width="20" height="21" viewBox="0 0 20 21" fill="none" xmlns="http://www.w3.org/2000/svg">
<path d="M9.14286 8.35714C9.14286 9.06696 8.56696 9.64286 7.85714 9.64286H5.28571C4.57563 9.64286 4 9.06696 4 8.35714V5.78571C4 5.07563 4.57563 4.5 5.28571 4.5H7.85714C8.56696 4.5 9.14286 5.07563 9.14286 5.78571V8.35714ZM9.14286 15.2143C9.14286 15.9241 8.56696 16.5 7.85714 16.5H5.28571C4.57563 16.5 4 15.9241 4 15.2143V12.6429C4 11.933 4.57563 11.3571 5.28571 11.3571H7.85714C8.56696 11.3571 9.14286 11.933 9.14286 12.6429V15.2143ZM10.8571 5.78571C10.8571 5.07563 11.433 4.5 12.1429 4.5H14.7143C15.4241 4.5 16 5.07563 16 5.78571V8.35714C16 9.06696 15.4241 9.64286 14.7143 9.64286H12.1429C11.433 9.64286 10.8571 9.06696 10.8571 8.35714V5.78571ZM16 15.2143C16 15.9241 15.4241 16.5 14.7143 16.5H12.1429C11.433 16.5 10.8571 15.9241 10.8571 15.2143V12.6429C10.8571 11.933 11.433 11.3571 12.1429 11.3571H14.7143C15.4241 11.3571 16 11.933 16 12.6429V15.2143Z" fill="#595F60"/>
</svg>
