<svg width="20" height="20" viewBox="0 0 20 20" fill="none" xmlns="http://www.w3.org/2000/svg">
<path d="M4 6.16129C4 5.51992 4.51992 5 5.16129 5C5.80266 5 6.32258 5.51992 6.32258 6.16129C6.32258 6.80242 5.80266 7.32258 5.16129 7.32258C4.51992 7.32258 4 6.80242 4 6.16129ZM15.2258 5.3871C15.654 5.3871 16 5.73379 16 6.16129C16 6.58952 15.654 6.93548 15.2258 6.93548H8.25806C7.82984 6.93548 7.48387 6.58952 7.48387 6.16129C7.48387 5.73379 7.82984 5.3871 8.25806 5.3871H15.2258ZM15.2258 9.25806C15.654 9.25806 16 9.60403 16 10.0323C16 10.4605 15.654 10.8065 15.2258 10.8065H8.25806C7.82984 10.8065 7.48387 10.4605 7.48387 10.0323C7.48387 9.60403 7.82984 9.25806 8.25806 9.25806H15.2258ZM15.2258 13.129C15.654 13.129 16 13.475 16 13.9032C16 14.3315 15.654 14.6774 15.2258 14.6774H8.25806C7.82984 14.6774 7.48387 14.3315 7.48387 13.9032C7.48387 13.475 7.82984 13.129 8.25806 13.129H15.2258ZM4 13.9032C4 13.2621 4.51992 12.7419 5.16129 12.7419C5.80266 12.7419 6.32258 13.2621 6.32258 13.9032C6.32258 14.5444 5.80266 15.0645 5.16129 15.0645C4.51992 15.0645 4 14.5444 4 13.9032ZM6.32258 10.0323C6.32258 10.6734 5.80266 11.1935 5.16129 11.1935C4.51992 11.1935 4 10.6734 4 10.0323C4 9.39113 4.51992 8.87097 5.16129 8.87097C5.80266 8.87097 6.32258 9.39113 6.32258 10.0323Z" fill="#595F60"/>
</svg>
