<svg width="28" height="29" viewBox="0 0 28 29" fill="none" xmlns="http://www.w3.org/2000/svg">
<rect y="0.5" width="28" height="28" rx="4" fill="#D0DCE1"/>
<path d="M8 10.6613C8 10.0199 8.51992 9.5 9.16129 9.5C9.80266 9.5 10.3226 10.0199 10.3226 10.6613C10.3226 11.3024 9.80266 11.8226 9.16129 11.8226C8.51992 11.8226 8 11.3024 8 10.6613ZM19.2258 9.8871C19.654 9.8871 20 10.2338 20 10.6613C20 11.0895 19.654 11.4355 19.2258 11.4355H12.2581C11.8298 11.4355 11.4839 11.0895 11.4839 10.6613C11.4839 10.2338 11.8298 9.8871 12.2581 9.8871H19.2258ZM19.2258 13.7581C19.654 13.7581 20 14.104 20 14.5323C20 14.9605 19.654 15.3065 19.2258 15.3065H12.2581C11.8298 15.3065 11.4839 14.9605 11.4839 14.5323C11.4839 14.104 11.8298 13.7581 12.2581 13.7581H19.2258ZM19.2258 17.629C19.654 17.629 20 17.975 20 18.4032C20 18.8315 19.654 19.1774 19.2258 19.1774H12.2581C11.8298 19.1774 11.4839 18.8315 11.4839 18.4032C11.4839 17.975 11.8298 17.629 12.2581 17.629H19.2258ZM8 18.4032C8 17.7621 8.51992 17.2419 9.16129 17.2419C9.80266 17.2419 10.3226 17.7621 10.3226 18.4032C10.3226 19.0444 9.80266 19.5645 9.16129 19.5645C8.51992 19.5645 8 19.0444 8 18.4032ZM10.3226 14.5323C10.3226 15.1734 9.80266 15.6935 9.16129 15.6935C8.51992 15.6935 8 15.1734 8 14.5323C8 13.8911 8.51992 13.371 9.16129 13.371C9.80266 13.371 10.3226 13.8911 10.3226 14.5323Z" fill="#125169"/>
</svg>
